<svg width="58" height="56" viewBox="0 0 58 56" fill="none" xmlns="http://www.w3.org/2000/svg">
<path fill-rule="evenodd" clip-rule="evenodd" d="M36 0C35.2316 0 34.5308 0.288855 34 0.763896C33.4692 0.288855 32.7684 0 32 0H13C12.2316 0 11.5308 0.288854 11 0.763896C10.4692 0.288855 9.76836 0 9 0H3C1.34315 0 0 1.34315 0 3V8C0 8.76836 0.288854 9.46924 0.763896 10C0.288855 10.5308 0 11.2316 0 12V17C0 17.7684 0.288854 18.4692 0.763896 19C0.288854 19.5308 0 20.2316 0 21V26C0 26.7684 0.288855 27.4692 0.763896 28C0.288855 28.5308 0 29.2316 0 30V35C0 35.7684 0.288855 36.4692 0.763896 37C0.288855 37.5308 0 38.2316 0 39V44C0 44.7684 0.288855 45.4692 0.763896 46C0.288855 46.5308 0 47.2316 0 48V53C0 54.6569 1.34315 56 3 56H22C22.7684 56 23.4692 55.7111 24 55.2361C24.5308 55.7111 25.2316 56 26 56H45C45.7684 56 46.4692 55.7111 47 55.2361C47.5308 55.7111 48.2316 56 49 56H55C56.6569 56 58 54.6569 58 53V48C58 47.2316 57.7111 46.5308 57.2361 46C57.7111 45.4692 58 44.7684 58 44V39C58 38.2316 57.7111 37.5308 57.2361 37C57.7111 36.4692 58 35.7684 58 35V30C58 29.2316 57.7111 28.5308 57.2361 28C57.7111 27.4692 58 26.7684 58 26V21C58 20.2316 57.7111 19.5308 57.2361 19C57.7111 18.4692 58 17.7684 58 17V12C58 11.2316 57.7111 10.5308 57.2361 10C57.7111 9.46925 58 8.76836 58 8V3C58 1.34315 56.6569 0 55 0H36ZM3 38C2.44772 38 2 38.4477 2 39V44C2 44.5523 2.44772 45 3 45H9C9.55229 45 10 44.5523 10 44V39C10 38.4477 9.55229 38 9 38H3ZM46 48V53C46 53.5523 45.5523 54 45 54H26C25.4477 54 25 53.5523 25 53V48C25 47.4477 25.4477 47 26 47H32H36H45C45.5523 47 46 47.4477 46 48ZM55 45H49H45H36C35.4477 45 35 44.5523 35 44V39C35 38.4477 35.4477 38 36 38H45H49H55C55.5523 38 56 38.4477 56 39V44C56 44.5523 55.5523 45 55 45ZM49 47H55C55.5523 47 56 47.4477 56 48V53C56 53.5523 55.5523 54 55 54H49C48.4477 54 48 53.5523 48 53V48C48 47.4477 48.4477 47 49 47ZM12 3V8C12 8.55229 12.4477 9 13 9H22H26H32C32.5523 9 33 8.55228 33 8V3C33 2.44771 32.5523 2 32 2H13C12.4477 2 12 2.44772 12 3ZM9 11H3C2.44772 11 2 11.4477 2 12V17C2 17.5523 2.44772 18 3 18H9H13H22C22.5523 18 23 17.5523 23 17V12C23 11.4477 22.5523 11 22 11H13H9ZM10 3C10 2.44772 9.55229 2 9 2H3C2.44772 2 2 2.44772 2 3V8C2 8.55228 2.44772 9 3 9H9C9.55229 9 10 8.55228 10 8V3ZM22 36H13H9H3C2.44772 36 2 35.5523 2 35V30C2 29.4477 2.44772 29 3 29H9H13H22C22.5523 29 23 29.4477 23 30V35C23 35.5523 22.5523 36 22 36ZM12 39V44C12 44.5523 12.4477 45 13 45H22H26H32C32.5523 45 33 44.5523 33 44V39C33 38.4477 32.5523 38 32 38H26H22H13C12.4477 38 12 38.4477 12 39ZM9 47H3C2.44772 47 2 47.4477 2 48V53C2 53.5523 2.44772 54 3 54H22C22.5523 54 23 53.5523 23 53V48C23 47.4477 22.5523 47 22 47H13H9ZM32 36H26C25.4477 36 25 35.5523 25 35V30C25 29.4477 25.4477 29 26 29H32H36H45C45.5523 29 46 29.4477 46 30V35C46 35.5523 45.5523 36 45 36H36H32ZM26 11C25.4477 11 25 11.4477 25 12V17C25 17.5523 25.4477 18 26 18H32H36H45C45.5523 18 46 17.5523 46 17V12C46 11.4477 45.5523 11 45 11H36H32H26ZM35 8C35 8.55229 35.4477 9 36 9H45H49H55C55.5523 9 56 8.55228 56 8V3C56 2.44771 55.5523 2 55 2H36C35.4477 2 35 2.44772 35 3V8ZM55 36H49C48.4477 36 48 35.5523 48 35V30C48 29.4477 48.4477 29 49 29H55C55.5523 29 56 29.4477 56 30V35C56 35.5523 55.5523 36 55 36ZM49 11C48.4477 11 48 11.4477 48 12V17C48 17.5523 48.4477 18 49 18H55C55.5523 18 56 17.5523 56 17V12C56 11.4477 55.5523 11 55 11H49ZM9 27H3C2.44772 27 2 26.5523 2 26V21C2 20.4477 2.44772 20 3 20H9C9.55229 20 10 20.4477 10 21V26C10 26.5523 9.55229 27 9 27ZM22 27H13C12.4477 27 12 26.5523 12 26V21C12 20.4477 12.4477 20 13 20H22H26H32C32.5523 20 33 20.4477 33 21V26C33 26.5523 32.5523 27 32 27H26H22ZM36 27H45H49H55C55.5523 27 56 26.5523 56 26V21C56 20.4477 55.5523 20 55 20H49H45H36C35.4477 20 35 20.4477 35 21V26C35 26.5523 35.4477 27 36 27Z" fill="#333333"/>
</svg>
