<svg width="51" height="48" viewBox="0 0 51 48" fill="none" xmlns="http://www.w3.org/2000/svg">
<path fill-rule="evenodd" clip-rule="evenodd" d="M3.28445 7.46666L6.2 2H12.8L15.7156 7.46666L12.8394 12.5H6.16065L3.28445 7.46666ZM5 0H14L17.7333 7H23.2667L27 0H36L39.7333 7H47L51 14.5L47.4138 20.7759L51 27.5L47.4138 33.7759L51 40.5L47 47.5H38L34 40.5H27.4286L24 46.5H15L11 39.5H4L0 32.5L3.7931 25.3879L1 20.5L4.58621 13.7759L1 7.5L5 0ZM25.4375 20.7344L28.7143 15H34.2857L37.5625 20.7344L34.8394 25.5H28.1606L25.4375 20.7344ZM12.2857 15L15.5625 20.7344L13.0604 25.1132L13 25H5.87493L3.28445 20.4667L6.2 15H12.2857ZM26.4667 14L23.8 9H17.2L14.5333 14L17.4667 19.5H23.5333L26.4667 14ZM5 27.5L4.96552 27.4397L2.28445 32.4667L5.16065 37.5H11.8394L14.7156 32.4667L13 29.25L12 27.5H5ZM14.3 27.4375L17.2 22H23.8L26.4667 27L23.8 32H16.8749L14.751 28.2831L14.3 27.4375ZM45.8394 19.5H39.4667L36.5333 14L39.2 9H45.8L48.7155 14.4667L45.8394 19.5ZM15.9655 34.4397L13.2844 39.4667L16.1606 44.5H22.8394L25.7155 39.4667L23.0667 34.5H16L15.9655 34.4397ZM36.5333 27L39.4667 32.5H45.8394L48.7155 27.4667L45.8 22H39.2L36.5333 27ZM28.7143 28H34.2857L37.5625 33.7344L34.8394 38.5H28.1606L25.4375 33.7344L28.7143 28ZM28.2 2L25.2844 7.46666L28.1606 12.5H34.8394L37.7155 7.46666L34.8 2H28.2ZM39.2 35L36.2845 40.4667L39.1606 45.5H45.8394L48.7155 40.4667L45.8 35H39.2Z" fill="#333333"/>
</svg>
