<svg width="50" height="57" viewBox="0 0 50 57" fill="none" xmlns="http://www.w3.org/2000/svg">
<path fill-rule="evenodd" clip-rule="evenodd" d="M42 0H44H48H50V1V2V3V5V52V54V55V56V57H48H44H42V56V55V54H8V55V56V57H6H2H0V56V55V54V52V5V3V2V1V0H2H6H8V1V2V3H42V2V1V0ZM2 5H48V52H2V5ZM5 9C5 8.44771 5.44772 8 6 8H44C44.5523 8 45 8.44772 45 9V9.5C45 10.0523 44.5523 10.5 44 10.5H6C5.44771 10.5 5 10.0523 5 9.5V9ZM6 14.5C5.44772 14.5 5 14.9477 5 15.5V16C5 16.5523 5.44771 17 6 17H44C44.5523 17 45 16.5523 45 16V15.5C45 14.9477 44.5523 14.5 44 14.5H6ZM5 22C5 21.4477 5.44772 21 6 21H44C44.5523 21 45 21.4477 45 22V22.5C45 23.0523 44.5523 23.5 44 23.5H6C5.44771 23.5 5 23.0523 5 22.5V22ZM6 27.5C5.44772 27.5 5 27.9477 5 28.5V29C5 29.5523 5.44771 30 6 30H44C44.5523 30 45 29.5523 45 29V28.5C45 27.9477 44.5523 27.5 44 27.5H6ZM5 35C5 34.4477 5.44772 34 6 34H44C44.5523 34 45 34.4477 45 35V35.5C45 36.0523 44.5523 36.5 44 36.5H6C5.44771 36.5 5 36.0523 5 35.5V35ZM6 40.5C5.44772 40.5 5 40.9477 5 41.5V42C5 42.5523 5.44771 43 6 43H44C44.5523 43 45 42.5523 45 42V41.5C45 40.9477 44.5523 40.5 44 40.5H6ZM5 48C5 47.4477 5.44772 47 6 47H44C44.5523 47 45 47.4477 45 48V48.5C45 49.0523 44.5523 49.5 44 49.5H6C5.44771 49.5 5 49.0523 5 48.5V48Z" fill="#333333"/>
</svg>
