<svg width="50" height="54" viewBox="0 0 50 54" fill="none" xmlns="http://www.w3.org/2000/svg">
<path fill-rule="evenodd" clip-rule="evenodd" d="M0 2C0 0.89543 0.895431 0 2 0H48C49.1046 0 50 0.895432 50 2V11C50 11.3643 49.9026 11.7058 49.7324 12C49.9026 12.2942 50 12.6357 50 13V20C50 20.3643 49.9026 20.7058 49.7324 21C49.9026 21.2942 50 21.6357 50 22V31C50 31.3643 49.9026 31.7058 49.7324 32C49.9026 32.2942 50 32.6357 50 33V41C50 41.3643 49.9026 41.7058 49.7324 42C49.9026 42.2942 50 42.6357 50 43V52C50 53.1046 49.1046 54 48 54H2C0.895428 54 0 53.1046 0 52V43C0 41.8954 0.895431 41 2 41H27V33H2C0.895428 33 0 32.1046 0 31V22C0 20.8954 0.895431 20 2 20H27V13H2C0.895428 13 0 12.1046 0 11V2ZM29 31H48V22H29H2V31H29ZM29 33V41H48V33H29ZM29 43H2V52H48V43H29ZM48 13V20H29V13H48ZM48 11H29H2V2L48 2V11Z" fill="#333333"/>
</svg>
