<svg width="56" height="53" viewBox="0 0 56 53" fill="none" xmlns="http://www.w3.org/2000/svg">
<path fill-rule="evenodd" clip-rule="evenodd" d="M28 2.78342L3.49714 26.5H27V28.5H8V35H34V37H8V43H38V45H8V50C8 50.5523 8.44772 51 9 51H47C47.5523 51 48 50.5523 48 50V28.5V28V26.5H52.5029L28 2.78342ZM50 28.5H54.9739C55.8727 28.5 56.3152 27.4065 55.6693 26.7815L28.6955 0.673167C28.3078 0.297889 27.6922 0.297889 27.3045 0.673167L0.330651 26.7815C-0.315165 27.4066 0.127346 28.5 1.02613 28.5H6V50C6 51.6569 7.34315 53 9 53H47C48.6569 53 50 51.6569 50 50V28.5Z" fill="#333333"/>
</svg>
